PathFileType	4	(X/Y/Z)	./resultDataOpenSim/trcMotMarkerGrf/sub09/qtm-03-07.trc
DataRate	CameraRate	NumFrames	NumMarkers	Units	OrigDataRate	OrigDataStartFrame	OrigNumFrames
250.000000	250.000000	14	24	m	250.000000	246	491
Frame#	Time	L.Toe.Tip			R.Toe.Tip			L.Ankle.Lat			R.Ankle.Lat			L.Ankle.Med			R.Ankle.Med			L.Heel			R.Heel			L.Knee.Lat			R.Knee.Lat			L.Knee.Med			R.Knee.Med			L.Thigh.Upper			R.Thigh.Upper			L.ASIS			R.ASIS			V.Sacral			L.Acromium			R.Acromium			C7			L.Elbow			R.Elbow			L.Wrist.Lat			R.Wrist.Lat
		X1	Y1	Z1	X2	Y2	Z2	X3	Y3	Z3	X4	Y4	Z4	X5	Y5	Z5	X6	Y6	Z6	X7	Y7	Z7	X8	Y8	Z8	X9	Y9	Z9	X10	Y10	Z10	X11	Y11	Z11	X12	Y12	Z12	X13	Y13	Z13	X14	Y14	Z14	X15	Y15	Z15	X16	Y16	Z16	X17	Y17	Z17	X18	Y18	Z18	X19	Y19	Z19	X20	Y20	Z20	X21	Y21	Z21	X22	Y22	Z22	X23	Y23	Z23	X24	Y24	Z24

246	0.98	0.13060101	-0.010643545	-0.0029026206	0.44299145	0.10895584	0.097181328	-0.014754791	0.032997082	-0.051417514	0.29589606	0.12079152	0.10740115	0.0040356435	0.052188936	0.044526638	0.32186644	0.15703049	0.016856523	-0.089511807	0.0054308892	-0.007945846	0.23691382	0.095394491	0.046923017	0.088771935	0.43705604	-0.10908662	0.40466472	0.55486053	0.16710679	0.085607257	0.43996928	0.016504831	0.41260267	0.54552004	0.039990519	0.14309691	0.85836759	-0.16377923	0.14380636	0.86701268	0.20710814	0.23357989	0.94010221	-0.10245149	0.21954407	0.95150933	0.13604605	0.064702418	1.0014021	0.015999362	0.23275781	1.4034374	-0.1330625	0.18353713	1.403882	0.19170764	0.1408154	1.4509776	0.020636766	0.13875245	1.041633	-0.21609534	0.025502462	1.0765484	0.25860877	0.37863795	0.91056897	-0.19908442	0.13338294	0.83124095	0.31065253
247	0.984	0.13058875	-0.010649367	-0.003033145	0.46227374	0.10942785	0.096902227	-0.014652983	0.033329472	-0.051222871	0.31469194	0.11808151	0.10717372	0.0043620316	0.052650504	0.044761305	0.34007289	0.15495062	0.016563329	-0.089489561	0.00607344	-0.0072428732	0.25671533	0.091324627	0.046287969	0.089088655	0.4374332	-0.10932217	0.41145429	0.55555321	0.1671078	0.085992873	0.44016057	0.016640855	0.41956867	0.546158	0.040141977	0.14767524	0.85808245	-0.16348841	0.14952114	0.8666677	0.20739676	0.23912705	0.93956028	-0.10247512	0.22532311	0.95105982	0.13611096	0.070230734	1.0010336	0.015502767	0.23859764	1.4029997	-0.13280252	0.18953503	1.4034059	0.1919664	0.14661264	1.4505029	0.020910307	0.14606079	1.0407637	-0.21607772	0.030999534	1.076549	0.25872567	0.38785419	0.91284829	-0.19786115	0.13693907	0.83069194	0.31181555
248	0.988	0.13053488	-0.010639999	-0.0031232872	0.48145534	0.1100067	0.096717115	-0.014541163	0.033674018	-0.051028154	0.33341346	0.11559455	0.10691255	0.0047016217	0.053126832	0.04502986	0.35832218	0.15300146	0.016251874	-0.089461114	0.0067440758	-0.0064999166	0.27642554	0.087480607	0.045647375	0.089484405	0.43778323	-0.10955734	0.41816038	0.55607135	0.16717502	0.086446378	0.44035643	0.016710193	0.42638034	0.54660539	0.04038516	0.15227839	0.8577253	-0.16321381	0.15522589	0.86624254	0.20769539	0.24471887	0.93897919	-0.1024599	0.23109674	0.95052055	0.13618974	0.075721984	1.0005706	0.01450011	0.24443322	1.4025009	-0.13253144	0.19555286	1.4028684	0.19223227	0.15242667	1.4499427	0.021184293	0.15346851	1.0398371	-0.21610126	0.036426268	1.0765348	0.2588713	0.39701706	0.91506312	-0.19663292	0.14058952	0.83012458	0.31298636
249	0.992	0.13045927	-0.010612136	-0.0031934042	0.50052778	0.11072777	0.096626528	-0.01454182	0.034087968	-0.050774823	0.35204911	0.1133356	0.10663028	0.0050520228	0.053614006	0.045305578	0.37659675	0.15119134	0.01592901	-0.089434764	0.0074449301	-0.0057543661	0.29604535	0.0838318	0.044992211	0.089971189	0.43810086	-0.10979327	0.42476955	0.55641156	0.16728947	0.087151461	0.44058502	0.016604058	0.43311532	0.54684895	0.040668275	0.15698555	0.85730847	-0.16304543	0.16091646	0.8657349	0.20800083	0.25027253	0.93832566	-0.10244544	0.23687515	0.94989404	0.13628285	0.081281088	1.0000052	0.013859893	0.25027296	1.4019421	-0.13224746	0.20158526	1.4022719	0.19250455	0.15828611	1.4492981	0.021456909	0.16096238	1.0387592	-0.21603188	0.041809574	1.0764917	0.2590289	0.40612657	0.91721389	-0.19540082	0.14431085	0.82953046	0.31415343
250	0.996	0.13038584	-0.010588724	-0.0032572026	0.51948042	0.11161438	0.09663487	-0.014667331	0.034579803	-0.050447668	0.37059165	0.1112978	0.10636472	0.0054219468	0.054097568	0.045560927	0.39484982	0.14953704	0.015615565	-0.089413653	0.0081735817	-0.0050345608	0.31563565	0.08037133	0.044314795	0.090572447	0.4383836	-0.11002122	0.4312773	0.55657785	0.16743623	0.087932212	0.44088588	0.016432991	0.4398312	0.54689614	0.040975514	0.16184088	0.85684351	-0.16302516	0.16659474	0.86514039	0.20831677	0.25575098	0.93757836	-0.10245383	0.24268145	0.9491853	0.13639224	0.086918816	0.99936556	0.013940622	0.25611927	1.4013243	-0.13195436	0.20763225	1.4016197	0.192777	0.16421175	1.448572	0.021723458	0.1685199	1.0375213	-0.21579204	0.047203776	1.0763892	0.2591976	0.41519242	0.91930307	-0.19416119	0.14809289	0.82890007	0.31530716
251	1	0.13032905	-0.010583926	-0.0033156058	0.53829332	0.11265895	0.096749597	-0.014831762	0.035114434	-0.050077334	0.38899935	0.10947542	0.10616037	0.005829657	0.054564907	0.045780029	0.41302436	0.14806614	0.015344215	-0.089395355	0.0089195741	-0.0043370036	0.33523951	0.077129031	0.043635391	0.091318816	0.43862843	-0.1102304	0.43769219	0.55657378	0.16761435	0.088670973	0.44122463	0.016304209	0.44654141	0.5467731	0.04129272	0.16675639	0.85632103	-0.16305665	0.17227086	0.86446135	0.20864477	0.26116086	0.93673698	-0.1024808	0.24853793	0.94839666	0.13651859	0.092549505	0.9986744	0.014408474	0.2619723	1.4006516	-0.13165922	0.21369666	1.4009114	0.19304735	0.17019707	1.4478091	0.021996949	0.17611029	1.0361925	-0.21542649	0.052661269	1.076202	0.25939076	0.42422676	0.92133351	-0.19290927	0.15193378	0.828225	0.31644156
252	1.004	0.13029348	-0.010591922	-0.003361172	0.55695065	0.11382817	0.09695923	-0.01495965	0.035650897	-0.049700979	0.40726586	0.10783344	0.10602139	0.006296789	0.055022363	0.045958582	0.43108589	0.14679404	0.015140243	-0.089377953	0.0096675638	-0.003617682	0.35484158	0.074137379	0.042988079	0.092236221	0.43883204	-0.11041935	0.44402518	0.55639956	0.16782538	0.089509448	0.4414857	0.016212025	0.45320707	0.54649945	0.041597035	0.17157253	0.8557199	-0.16298013	0.17795496	0.86369787	0.20897904	0.26651797	0.93581072	-0.10251765	0.25445287	0.94752615	0.13666032	0.098149746	0.99792915	0.014879472	0.2678333	1.3999271	-0.13136728	0.21978266	1.4001415	0.19331744	0.1762066	1.4470783	0.022307774	0.18370028	1.0348501	-0.2150635	0.058208078	1.0759227	0.25961968	0.43323108	0.92330586	-0.19164711	0.1558385	0.82750157	0.31755426
253	1.008	0.13027924	-0.0106035	-0.003388911	0.57545643	0.11509047	0.097231462	-0.015021309	0.036160971	-0.049347644	0.42547715	0.106295	0.10587853	0.0068289624	0.055485641	0.046098606	0.44903624	0.1457039	0.015005795	-0.089361844	0.010411067	-0.0028441177	0.3743909	0.071399701	0.042398486	0.093333997	0.43899544	-0.11059061	0.45027938	0.5560589	0.16806121	0.090603879	0.44159265	0.016122177	0.45977528	0.54607625	0.041885365	0.17621932	0.85503393	-0.16273367	0.18365889	0.8628459	0.20931692	0.27183595	0.93480657	-0.10256216	0.26041791	0.94656989	0.13681191	0.1038511	0.9971381	0.015323247	0.27370143	1.3991484	-0.13107918	0.22589591	1.3993019	0.19358724	0.18220411	1.4463782	0.022665773	0.19127232	1.0335185	-0.21479385	0.06384424	1.0755606	0.25988444	0.44219337	0.92521429	-0.19038683	0.15982048	0.82673301	0.31864623
254	1.012	0.1302803	-0.010616865	-0.0034022681	0.59383135	0.11643601	0.097533714	-0.015012722	0.036637781	-0.049037503	0.44376917	0.10476193	0.10561181	0.0073851919	0.05594795	0.046217317	0.46688958	0.14476722	0.01492751	-0.089341649	0.011157732	-0.0020772376	0.39383661	0.068903858	0.041884148	0.094596557	0.43912545	-0.11073905	0.45645276	0.55555586	0.16831408	0.09196062	0.44161658	0.016002499	0.46622013	0.54549916	0.042181582	0.18073501	0.85427157	-0.16236414	0.18939488	0.8619095	0.20966058	0.27713	0.93372545	-0.10261239	0.26641974	0.94552856	0.13696273	0.10976305	0.99631443	0.015861868	0.2795725	1.3983114	-0.13079478	0.23204012	1.3983898	0.19385923	0.18818102	1.4456239	0.023042318	0.19883115	1.0321758	-0.2146088	0.069556648	1.0751299	0.26018273	0.45110173	0.92704846	-0.18913996	0.16388847	0.82592355	0.31971653
255	1.016	0.13028691	-0.010635792	-0.0034103839	0.61208698	0.11788036	0.097834627	-0.014945734	0.037094972	-0.048774869	0.46226045	0.10314527	0.10513521	0.0078955749	0.056381839	0.046344871	0.48462737	0.14397751	0.014890285	-0.089303984	0.011919865	-0.0014387595	0.41314084	0.066642893	0.041467727	0.095989204	0.4392276	-0.11085628	0.46254115	0.5548879	0.16858343	0.093481663	0.44172042	0.015808818	0.47253513	0.54476755	0.042499394	0.18517384	0.85344001	-0.16193341	0.19516934	0.86090205	0.21001027	0.2824128	0.93256421	-0.10266539	0.272452	0.94441131	0.13710215	0.11578706	0.99544235	0.016476059	0.28544284	1.3974173	-0.13051617	0.238211	1.397413	0.19413725	0.1941485	1.4447536	0.02339997	0.20639427	1.0307932	-0.21444153	0.075345306	1.0746314	0.26052717	0.45995566	0.92880161	-0.1879073	0.16803617	0.8250728	0.32076222
256	1.02	0.130294	-0.010663651	-0.0034203548	0.63020113	0.11944345	0.09809081	-0.014845492	0.037550589	-0.048546505	0.48094746	0.10145915	0.10451024	0.0083284093	0.056773974	0.046496255	0.50219291	0.14334476	0.014883738	-0.089240497	0.012701944	-0.00098431887	0.4322719	0.0646138	0.041182537	0.097486828	0.43929816	-0.11094357	0.46852344	0.55404375	0.16885752	0.095029599	0.44197724	0.015537487	0.47871517	0.54388063	0.042823633	0.18958092	0.85254813	-0.16149367	0.20098587	0.85983419	0.21036588	0.28768341	0.93132343	-0.10272197	0.27851606	0.94323041	0.13722282	0.12175282	0.99450201	0.017061662	0.29131378	1.3964733	-0.13024499	0.2443914	1.3963848	0.19441911	0.20011495	1.4437799	0.023721774	0.21397864	1.0293575	-0.21423248	0.081254252	1.0740465	0.26095748	0.46875955	0.93047049	-0.18668571	0.17225242	0.82417851	0.32178299
257	1.024	0.13030179	-0.010700342	-0.0034330676	0.64813726	0.12112155	0.098246547	-0.014744285	0.038013971	-0.048326552	0.49963326	0.099883705	0.10395374	0.0087065061	0.057134634	0.04666027	0.51952504	0.14286916	0.014915653	-0.089154834	0.013497595	-0.00067594063	0.45119036	0.062815719	0.041067532	0.099095711	0.43932666	-0.11101112	0.47437265	0.55301559	0.16911376	0.096558307	0.44228083	0.015247085	0.48477317	0.54283649	0.043124702	0.1940219	0.85161978	-0.16111322	0.20684977	0.8587085	0.21072828	0.29292375	0.93001973	-0.10278583	0.284614	0.94199535	0.13731804	0.12760435	0.99350166	0.017586759	0.29719176	1.3954861	-0.12998095	0.25055937	1.3953126	0.19470277	0.20608258	1.4427417	0.024016074	0.22159369	1.0278736	-0.21396045	0.087336858	1.0733623	0.26151366	0.47751623	0.93205274	-0.18547395	0.17653565	0.82324057	0.32278166
258	1.028	0.13031049	-0.010743042	-0.0034455251	0.66587906	0.12289265	0.098254772	-0.01467732	0.038490291	-0.048077756	0.5180728	0.098628599	0.10366447	0.0090640217	0.057481137	0.046817362	0.53657949	0.14253984	0.01502099	-0.08905471	0.01429988	-0.00045590933	0.46985307	0.061252751	0.041155082	0.10084164	0.43930773	-0.11106855	0.4801008	0.55181533	0.16934428	0.098219592	0.44245106	0.01501347	0.49075115	0.54163659	0.043365483	0.1985786	0.85068829	-0.16087094	0.21276755	0.85752728	0.21109436	0.29811045	0.9286822	-0.10285973	0.2907432	0.94071501	0.13738163	0.13337153	0.99245663	0.018075992	0.3030825	1.3944569	-0.12972392	0.25670711	1.3941961	0.19499285	0.21206065	1.4416613	0.024305948	0.22924382	1.0263495	-0.21362897	0.093548928	1.0726005	0.26216998	0.4862297	0.93355157	-0.18426925	0.18089084	0.82226126	0.32376075
259	1.032	0.13031927	-0.010787623	-0.0034550206	0.68342152	0.12473756	0.09810256	-0.014683467	0.038993973	-0.047751966	0.53617632	0.097760476	0.10367712	0.009419878	0.057830411	0.046956181	0.55333499	0.14234943	0.015238303	-0.088944182	0.015111745	-0.00029155781	0.48823858	0.059926012	0.041452941	0.10274752	0.43924861	-0.11112179	0.48575451	0.55046331	0.16955179	0.10022548	0.44240041	0.014888044	0.49668686	0.54028417	0.043508376	0.20328745	0.84976775	-0.16080423	0.21874899	0.85630081	0.2114587	0.30322338	0.927329	-0.10295294	0.29689719	0.93939891	0.1374082	0.13908636	0.99136898	0.018548706	0.30898667	1.3933847	-0.12947392	0.26284837	1.3930348	0.19529139	0.21808294	1.440539	0.02460746	0.23692834	1.0247851	-0.21324135	0.099737367	1.0718033	0.26283291	0.49490184	0.93497452	-0.18306844	0.18531619	0.82124496	0.32471829
